PathFileType	4	(X/Y/Z)	Patient4_TMGait_0pt3_02_right_06.trc.trc
DataRate	CameraRate	NumFrames	NumMarkers	Units	OrigDataRate	OrigDataStartFrame	OrigNumFrames
47.945205479452	47.945205479452	6	33	mm	47.945205479452	1	       141
Frame#	Time	Sacral			L.Shoulder			Chest			R.Shoulder			Neck			R.ASIS			L.ASIS			R.Thigh.Superior			R.Thigh.Lateral			R.Thigh.Inferior			R.Patella			L.Thigh.Superior			L.Thigh.Lateral			L.Thigh.Inferior			L.Patella			L.Shank.Superior			L.Shank.Lateral			L.Shank.Inferior			R.Shank.Superior			R.Shank.Lateral			R.Shank.Inferior			R.Heel			R.Midfoot.Superior			R.Midfoot.Lateral			R.Toe			L.Heel			L.Midfoot.Lateral			L.Midfoot.Superior			L.Toe			L.Elbow			L.Wrist			R.Elbow			R.Wrist			
		X1	Y1	Z1	X2	Y2	Z2	X3	Y3	Z3	X4	Y4	Z4	X5	Y5	Z5	X6	Y6	Z6	X7	Y7	Z7	X8	Y8	Z8	X9	Y9	Z9	X10	Y10	Z10	X11	Y11	Z11	X12	Y12	Z12	X13	Y13	Z13	X14	Y14	Z14	X15	Y15	Z15	X16	Y16	Z16	X17	Y17	Z17	X18	Y18	Z18	X19	Y19	Z19	X20	Y20	Z20	X21	Y21	Z21	X22	Y22	Z22	X23	Y23	Z23	X24	Y24	Z24	X25	Y25	Z25	X26	Y26	Z26	X27	Y27	Z27	X28	Y28	Z28	X29	Y29	Z29	X30	Y30	Z30	X31	Y31	Z31	X32	Y32	Z32	X33	Y33	Z33	

1	10.390000000000	722.035228082395	996.301296123457	442.223793940318	923.253969208371	1414.854676456035	250.521348200849	1018.964059246494	1345.325926283781	415.555166562235	935.935342405885	1428.009307358596	584.922992269623	903.885356202033	1480.800899458171	406.928940302089	947.288721707212	928.807211276523	565.718767065801	941.814162052668	943.364026633596	292.446627819108	989.488070205537	727.246347729755	553.509688480074	909.744177982026	620.995137689876	622.972108507118	991.963110005125	558.424348588519	551.593995132665	980.450991097918	449.211503609680	578.896245685989	1005.471551435888	746.137221722934	341.323110544364	936.996858235314	616.047716385264	287.377861432420	1026.225471127110	552.052585498598	361.978407682788	1033.142487356018	476.234496095084	372.936399170710	993.240427340819	401.726287469629	368.554813721830	892.272926579555	297.647569883205	316.658436818796	919.988443891064	184.542517484562	394.338167573775	896.475024453287	388.008240230093	584.404225039726	769.879167701706	362.643731102696	640.884983932637	749.352950462599	252.425389677881	595.667505840419	543.746252746018	204.776486875856	559.400394295591	706.211155785538	137.192568597905	613.891742590040	594.168296382540	143.167778270071	637.260959127585	762.847228377741	29.085338460717	643.482924782100	772.105422795291	39.914855818040	432.327126300453	849.478051345003	36.801880212811	355.431944347233	932.913010360562	95.255099842874	386.275485469700	1061.475618769970	39.803071810451	361.390801529708	903.161268109766	1064.981643838043	127.114187466676	961.290986965487	809.425459864720	147.560563975022	985.028481147385	1087.086589767689	722.090830483755	1165.465031773160	899.302251102169	759.867985716899	
2	10.410857142857	720.126596436652	993.535821883951	438.978407103821	923.367356919566	1413.316269150659	249.877123886592	1016.772560476984	1343.915836050247	416.101013942000	931.025840256440	1425.599430886871	584.673608613919	901.897590726683	1479.025272232381	406.348964496745	944.906261244926	927.478313359818	564.040681043725	941.369377317731	941.900988249396	290.630887939400	993.379633221187	729.851593711750	550.855464456343	918.388823066321	621.589646673964	620.933637554122	1002.549506722600	561.705886163768	549.342405441066	994.023450084102	451.243287315058	576.966774533705	1004.907222770183	744.229649131678	339.812854674412	936.580537898315	614.034203696017	286.412337916058	1025.414202559005	550.228857881158	361.897595985387	1032.103936302586	474.248923195547	373.292778528455	991.337291521286	399.719491335871	368.889041801954	889.404747642026	296.702661014536	316.664913537364	915.133425894856	183.520176920692	394.617811943729	908.945711076336	389.826379330629	582.366867804037	781.148478177495	367.010627382128	637.456042296814	758.945714183213	257.156756329853	592.781706660673	553.043141233177	213.075786870788	554.420629668406	713.497106185104	142.938633928907	611.054737593420	601.440029122094	151.363878974154	633.497939404357	767.484821319484	32.370886953275	642.993501400527	765.833555092860	39.879627289141	432.338181169315	843.151008600172	36.760609109314	355.390918241050	926.625499593906	95.096270970620	386.406042555503	1055.147889896950	39.738285348973	361.335673758294	916.214448372900	1063.759237699361	125.748727426174	985.456447461795	811.755128235626	146.123616975555	961.398517898911	1082.445034674872	718.892721895411	1122.831166664715	882.212943421191	757.464413023343	
3	10.431714285714	718.152564446721	991.020559388776	435.726738794385	923.495367692400	1412.041296014576	249.342569568771	1014.503468962261	1342.752359199069	416.787123152558	925.940763505561	1423.412368141022	584.496369439843	899.823094176531	1477.470718340807	405.862166877204	942.434673075144	926.369788418244	562.436283822911	940.911205049761	940.642893489491	288.888000633844	997.168073789830	732.792491145282	548.145112007714	927.065732227529	622.530611137359	618.852891317151	1013.069858214982	565.385070640641	546.953657908415	1007.678310421843	453.730741741407	574.895599671939	1004.155200777572	742.399659507502	338.328392471119	935.814131027286	612.163873658973	285.458590109036	1024.189751567054	548.454810151652	361.788811207283	1030.604003406882	472.348986321990	373.628627568906	989.002570879384	397.824299992729	369.189271614466	886.165030753513	295.815680396919	316.638820118141	909.997982277425	182.564804178709	394.866638178485	921.672988819568	391.919015555043	580.258960814306	792.730832971726	371.206211254366	634.030249270181	769.189986393922	261.584429475148	589.895563155608	562.990886875431	220.319370756432	549.588183995529	721.851794147928	148.242342149809	608.278187037957	609.688679774387	158.634691361484	629.823571739928	773.682051358979	35.472745443145	642.404976695482	759.336390128692	39.857944749430	432.335108358566	836.611414300018	36.721432688763	355.346004635266	920.125093712803	94.946442279704	386.517719322674	1048.607934606669	39.674088249417	361.280628349041	929.442997931148	1063.003404609629	124.416599761793	1010.531308109893	815.072071094330	144.857262435840	936.958088849675	1078.378761928674	715.480663048371	1078.612820644742	865.929154768039	754.508585709913	
4	10.452571428571	716.154505637243	988.972093695530	432.578718085966	923.650785282476	1411.203734849666	249.000644443693	1012.202227402052	1341.993887894008	417.666379674817	920.778867301028	1421.638284838886	584.437548972331	897.697942673360	1476.302038320234	405.538827677978	939.911755718472	925.633126454867	561.001971983971	940.453981505729	939.742349938071	287.318700944165	1000.640974469430	736.103618965785	545.474133935374	935.407415203653	623.927012849857	616.808627063584	1023.055642551757	569.486743640417	544.487771470815	1020.896161119974	456.788058473681	572.730858412988	1003.125855335761	740.745102948214	336.937008913445	934.531100622577	610.579968908899	284.549682019127	1022.361676070163	546.819866234304	361.639630123472	1028.434971242361	470.650586989957	373.914818834913	986.080732636351	396.169758371834	369.420630686798	882.464045676879	295.046320198483	316.563405293286	904.612919458410	181.744647479498	395.060614245398	934.279213306145	394.328405560259	578.162304210204	804.353968577945	374.956202839889	630.773836094543	780.066253300725	265.378209099895	587.161815221799	573.659750503145	225.656099534610	545.189332266362	731.557696807253	152.672392859748	605.724052107181	619.194436395452	164.231298280846	626.462085150573	782.052507292168	38.218280479643	641.764795905976	752.733570038047	39.853278386851	432.312280945171	829.985075796571	36.686305788680	355.297554749402	913.534230490558	94.814787793505	386.598648662995	1041.980519261260	39.614013724875	361.228179854185	942.465086707977	1062.972574908570	123.183568926781	1036.011262687673	819.775805295873	143.893168267960	912.235029261692	1075.330278332311	711.888075739872	1033.757752071347	851.461979129747	750.887214193467	
5	10.473428571429	714.167962211396	987.568494646472	429.617121894567	923.854435365551	1410.947199224332	248.925548105633	1009.904504583820	1341.769026245390	418.790406938169	915.615347912081	1420.436096502238	584.538392364244	895.551393083802	1475.656024326004	405.439508963193	937.355871755956	925.392305697794	559.814797939708	940.007693245938	939.327146105519	286.008559425375	1003.607260062591	739.799205470114	542.935779481297	943.080884929197	625.853731670912	614.878835679597	1032.098700264692	574.008004198778	542.020053410233	1033.221434240580	460.497067413051	570.542790224800	1001.732950054719	739.343949681672	335.688709321267	932.576691116973	609.402280728997	283.704694978838	1019.751466032944	545.399552045094	361.431356714990	1025.398584566969	469.250850256123	374.115484405312	982.420714379845	394.865415877468	369.544298449834	878.204869423146	294.443743742962	316.419816847117	898.984529322477	181.116858713604	395.177585473794	946.439720803227	397.077788557390	576.170711557880	815.802053648502	378.010126484092	627.846395758907	791.590465584742	268.253774117688	584.735783819102	585.195230499983	228.350004745442	541.478961796251	742.894078166132	155.857883561796	603.548091842454	630.259608913903	167.523149752923	623.626510929053	793.142954857980	40.453871211207	641.165387572890	746.110719151235	39.866621955010	432.266868996558	823.360338682442	36.656181591014	355.246176052162	906.939087463441	94.708768185911	386.638913051517	1035.353599871755	39.561144788392	361.180193687831	954.991981209683	1063.883061930368	122.097127889027	1061.482381641155	826.228328102937	143.341397096711	887.667997007060	1073.670571690079	708.153361095142	989.089795916427	839.643647481304	746.546268822634	
6	10.494285714286	712.221090251680	986.928626912321	426.892650927426	924.132589414086	1411.365083350946	249.175973791952	1007.636195413177	1342.158082583586	420.202687155884	910.502420308258	1419.913814407635	584.831035489846	893.407214929079	1475.623534349836	405.609483417302	934.767816804637	925.727885715292	558.927365467975	939.577667157911	939.482792405398	285.021408590151	1005.910073300511	743.857729935398	540.619660786955	949.800524905106	628.332715633189	613.138555960937	1039.871890986985	578.902220726091	539.643055168475	1044.280761018748	464.885853857786	568.423869611580	999.905013486677	738.245815951200	334.616129341465	929.830304423269	608.713959595624	282.929182246502	1016.216028098503	544.247749137790	361.144269322910	1021.332790595558	468.218375033041	374.194294521051	977.899422802357	393.989942995329	369.523458946352	873.301937103656	294.040763560470	316.190680603501	893.102978993880	180.721019928124	395.200798058263	957.890295155219	400.161018669306	574.386175062458	826.920483274752	380.161247917029	625.393384458812	803.794858387431	270.002793946960	582.765007312736	597.795727181942	227.859207508097	538.662538617432	756.092982163400	157.532888162981	601.887395293743	643.169704944297	168.069600114146	621.503010566315	807.360867013227	42.081024633978	640.734910821571	739.520896365269	39.895631189435	432.199259603366	816.789098359787	36.630729440688	355.192716586305	900.390710609264	94.633186922516	386.632194900224	1028.779410681321	39.518148710532	361.137870960652	966.839635265978	1065.879273247136	121.186063260934	1086.614763425051	834.699871328773	143.278880521337	863.608218686264	1073.654089821506	704.324147968513	945.314203166327	831.046847286505	741.511819153836	
